<svg width="17" height="19" viewBox="0 0 17 19" fill="none" xmlns="http://www.w3.org/2000/svg">
<path d="M2.88044 15.4659L2.88039 15.4659C2.37105 15.5408 1.98077 15.9917 1.98077 16.5412V16.5419C1.9801 16.7801 2.05732 17.0116 2.20012 17.2007C2.49416 17.5868 2.796 17.9669 3.10547 18.3405L3.44456 18.75H2.91292H1.32708H1.20499L1.12992 18.6537C1.02959 18.525 0.928769 18.394 0.826927 18.2608C0.448577 17.7659 0.25 17.1567 0.25 16.5418C0.25 15.1579 1.2412 13.948 2.6297 13.7435C6.99773 13.0997 10.0397 13.1582 14.3776 13.7637C15.753 13.9554 16.75 15.148 16.75 16.525M2.88044 15.4659L16.5 16.525M2.88044 15.4659C7.06601 14.8491 9.9421 14.9017 14.139 15.4877M2.88044 15.4659L14.1745 15.2403M16.75 16.525H16.5M16.75 16.525C16.75 16.525 16.75 16.5249 16.75 16.5248L16.5 16.525M16.75 16.525C16.7505 17.1646 16.5318 17.7849 16.1307 18.2811L16.1299 18.2821C16.0258 18.4094 15.9225 18.5355 15.8196 18.6592L15.7447 18.7494H15.6274H14.0022H13.449L13.8145 18.3342C14.1474 17.9561 14.4727 17.5713 14.7902 17.18L14.7902 17.1799C14.9366 16.9996 15.0192 16.7663 15.0192 16.5244V16.5228C15.0209 16.2713 14.9322 16.028 14.77 15.8378C14.6081 15.6478 14.3839 15.5237 14.139 15.4877M16.5 16.525C16.5005 17.1076 16.3013 17.6724 15.9363 18.1239C15.8323 18.2511 15.7295 18.3765 15.6274 18.4994H14.3344C14.2863 18.5546 14.2382 18.6096 14.1898 18.6646L14.0022 18.4994V18.2494H14.2203C14.4797 17.9495 14.7344 17.6455 14.9843 17.3375C15.1677 17.1116 15.2692 16.8223 15.2692 16.5244C15.2712 16.2131 15.1615 15.9116 14.9603 15.6756C14.759 15.4395 14.4799 15.2849 14.1745 15.2403M14.139 15.4877C14.1393 15.4878 14.1396 15.4878 14.1399 15.4878L14.1745 15.2403M14.139 15.4877C14.1388 15.4877 14.1385 15.4877 14.1383 15.4876L14.1745 15.2403M9.81661 8.6752C9.39913 8.84962 8.95175 8.93936 8.5 8.93936C7.58774 8.93936 6.7124 8.57387 6.06667 7.9226C5.42088 7.27126 5.05769 6.3874 5.05769 5.46535C5.05769 4.5433 5.42088 3.65944 6.06667 3.00809C6.7124 2.35682 7.58774 1.99134 8.5 1.99134C8.95175 1.99134 9.39913 2.08108 9.81661 2.25549C10.2341 2.4299 10.6136 2.6856 10.9333 3.00809C11.2531 3.33059 11.5068 3.71356 11.68 4.1352C11.8532 4.55685 11.9423 5.00884 11.9423 5.46535C11.9423 5.92186 11.8532 6.37384 11.68 6.79549C11.5068 7.21713 11.2531 7.6001 10.9333 7.9226C10.6136 8.24509 10.2341 8.50079 9.81661 8.6752ZM8.5 10.6807C9.87268 10.6807 11.1887 10.1307 12.1587 9.1524C13.1286 8.17417 13.6731 6.84786 13.6731 5.46535C13.6731 4.08284 13.1286 2.75652 12.1587 1.7783C11.1887 0.799996 9.87268 0.25 8.5 0.25C7.12732 0.25 5.8113 0.799996 4.84133 1.7783C3.87143 2.75652 3.32692 4.08284 3.32692 5.46535C3.32692 6.84786 3.87143 8.17417 4.84133 9.1524C5.8113 10.1307 7.12732 10.6807 8.5 10.6807Z" fill="#8956FD" stroke="#8956FD" stroke-width="0.5"/>
</svg>
