<svg width="30" height="30" viewBox="0 0 30 30" fill="none" xmlns="http://www.w3.org/2000/svg">
<g id="ic:round-search">
<path id="Vector" d="M19.3986 17.5431H18.4255L18.0807 17.2107C18.8504 16.3169 19.413 15.2642 19.7282 14.1277C20.0433 12.9913 20.1032 11.7993 19.9036 10.637C19.3247 7.21475 16.4671 4.48187 13.0182 4.06332C11.8057 3.91002 10.5741 4.03596 9.4178 4.43151C8.26148 4.82706 7.21102 5.48173 6.34681 6.34544C5.4826 7.20914 4.82755 8.25898 4.43176 9.41463C4.03598 10.5703 3.90997 11.8011 4.06336 13.0129C4.48216 16.4598 7.21664 19.3157 10.6409 19.8943C11.8039 20.0938 12.9966 20.0339 14.1337 19.719C15.2708 19.404 16.3241 18.8417 17.2184 18.0724L17.551 18.4171V19.3896L22.7859 24.6215C23.291 25.1262 24.1162 25.1262 24.6212 24.6215C25.1263 24.1167 25.1263 23.292 24.6212 22.7872L19.3986 17.5431ZM12.0081 17.5431C8.94108 17.5431 6.46527 15.0687 6.46527 12.0034C6.46527 8.93819 8.94108 6.46382 12.0081 6.46382C15.0752 6.46382 17.551 8.93819 17.551 12.0034C17.551 15.0687 15.0752 17.5431 12.0081 17.5431Z" fill="#8956FD"/>
</g>
</svg>
