<svg width="21" height="20" viewBox="0 0 21 20" fill="none" xmlns="http://www.w3.org/2000/svg">
<g clip-path="url(#clip0_1502_4)">
<path d="M10.043 3.04688V1.21875C10.043 1.09754 10.0911 0.98129 10.1768 0.89558C10.2625 0.80987 10.3788 0.761719 10.5 0.761719C10.6212 0.761719 10.7375 0.80987 10.8232 0.89558C10.9089 0.98129 10.957 1.09754 10.957 1.21875V3.04688C10.957 3.16809 10.9089 3.28433 10.8232 3.37004C10.7375 3.45575 10.6212 3.50391 10.5 3.50391C10.3788 3.50391 10.2625 3.45575 10.1768 3.37004C10.0911 3.28433 10.043 3.16809 10.043 3.04688ZM15.2227 9.75C15.2227 10.6841 14.9457 11.5971 14.4267 12.3738C13.9078 13.1504 13.1702 13.7557 12.3073 14.1132C11.4443 14.4706 10.4948 14.5641 9.57866 14.3819C8.66255 14.1997 7.82105 13.7499 7.16058 13.0894C6.5001 12.4289 6.05031 11.5875 5.86809 10.6713C5.68586 9.75524 5.77939 8.80567 6.13683 7.94272C6.49428 7.07977 7.0996 6.34219 7.87623 5.82325C8.65287 5.30432 9.56595 5.02734 10.5 5.02734C11.7521 5.02876 12.9525 5.52677 13.8379 6.41214C14.7232 7.2975 15.2212 8.49791 15.2227 9.75ZM14.3086 9.75C14.3086 8.99673 14.0852 8.26038 13.6667 7.63406C13.2482 7.00774 12.6534 6.51958 11.9575 6.23132C11.2616 5.94305 10.4958 5.86763 9.75698 6.01459C9.01819 6.16154 8.33956 6.52428 7.80692 7.05692C7.27428 7.58956 6.91154 8.26819 6.76459 9.00698C6.61763 9.74578 6.69305 10.5116 6.98132 11.2075C7.26958 11.9034 7.75774 12.4982 8.38406 12.9167C9.01038 13.3352 9.74673 13.5586 10.5 13.5586C11.5097 13.5574 12.4778 13.1557 13.1917 12.4417C13.9057 11.7278 14.3074 10.7597 14.3086 9.75ZM5.30203 5.19797C5.34387 5.24287 5.39433 5.27889 5.45039 5.30387C5.50645 5.32885 5.56697 5.34228 5.62834 5.34336C5.6897 5.34444 5.75066 5.33315 5.80757 5.31017C5.86448 5.28718 5.91617 5.25297 5.95957 5.20957C6.00297 5.16617 6.03718 5.11448 6.06017 5.05757C6.08315 5.00066 6.09444 4.9397 6.09336 4.87834C6.09228 4.81697 6.07885 4.75645 6.05387 4.70039C6.02889 4.64433 5.99287 4.59387 5.94797 4.55203L4.72922 3.33328C4.64258 3.25255 4.52799 3.2086 4.40959 3.21069C4.29119 3.21278 4.17822 3.26074 4.09448 3.34448C4.01074 3.42822 3.96278 3.54119 3.96069 3.65959C3.9586 3.77799 4.00255 3.89258 4.08328 3.97922L5.30203 5.19797ZM5.30203 14.302L4.08328 15.5208C4.03838 15.5626 4.00236 15.6131 3.97738 15.6691C3.9524 15.7252 3.93897 15.7857 3.93789 15.8471C3.93681 15.9085 3.9481 15.9694 3.97108 16.0263C3.99407 16.0832 4.02828 16.1349 4.07168 16.1783C4.11508 16.2217 4.16677 16.2559 4.22368 16.2789C4.28059 16.3019 4.34155 16.3132 4.40291 16.3121C4.46428 16.311 4.5248 16.2976 4.58086 16.2726C4.63692 16.2476 4.68738 16.2116 4.72922 16.1667L5.94797 14.948C5.99287 14.9061 6.02889 14.8557 6.05387 14.7996C6.07885 14.7435 6.09228 14.683 6.09336 14.6217C6.09444 14.5603 6.08315 14.4993 6.06017 14.4424C6.03718 14.3855 6.00297 14.3338 5.95957 14.2904C5.91617 14.247 5.86448 14.2128 5.80757 14.1898C5.75066 14.1668 5.6897 14.1556 5.62834 14.1566C5.56697 14.1577 5.50645 14.1712 5.45039 14.1961C5.39433 14.2211 5.34387 14.2571 5.30203 14.302ZM15.375 5.33203C15.4962 5.33192 15.6123 5.2837 15.698 5.19797L16.9167 3.97922C16.9974 3.89258 17.0414 3.77799 17.0393 3.65959C17.0372 3.54119 16.9893 3.42822 16.9055 3.34448C16.8218 3.26074 16.7088 3.21278 16.5904 3.21069C16.472 3.2086 16.3574 3.25255 16.2708 3.33328L15.052 4.55203C14.9882 4.61595 14.9447 4.69735 14.9271 4.78595C14.9095 4.87455 14.9186 4.96638 14.9531 5.04984C14.9877 5.13331 15.0462 5.20465 15.1213 5.25488C15.1964 5.3051 15.2847 5.33195 15.375 5.33203ZM15.698 14.302C15.6113 14.2213 15.4967 14.1774 15.3783 14.1794C15.2599 14.1815 15.147 14.2295 15.0632 14.3132C14.9795 14.397 14.9315 14.5099 14.9294 14.6283C14.9274 14.7467 14.9713 14.8613 15.052 14.948L16.2708 16.1667C16.3574 16.2474 16.472 16.2914 16.5904 16.2893C16.7088 16.2872 16.8218 16.2393 16.9055 16.1555C16.9893 16.0718 17.0372 15.9588 17.0393 15.8404C17.0414 15.722 16.9974 15.6074 16.9167 15.5208L15.698 14.302ZM4.25391 9.75C4.25391 9.62879 4.20575 9.51254 4.12004 9.42683C4.03433 9.34112 3.91809 9.29297 3.79688 9.29297H1.96875C1.84754 9.29297 1.73129 9.34112 1.64558 9.42683C1.55987 9.51254 1.51172 9.62879 1.51172 9.75C1.51172 9.87121 1.55987 9.98746 1.64558 10.0732C1.73129 10.1589 1.84754 10.207 1.96875 10.207H3.79688C3.91809 10.207 4.03433 10.1589 4.12004 10.0732C4.20575 9.98746 4.25391 9.87121 4.25391 9.75ZM10.5 15.9961C10.3788 15.9961 10.2625 16.0442 10.1768 16.13C10.0911 16.2157 10.043 16.3319 10.043 16.4531V18.2812C10.043 18.4025 10.0911 18.5187 10.1768 18.6044C10.2625 18.6901 10.3788 18.7383 10.5 18.7383C10.6212 18.7383 10.7375 18.6901 10.8232 18.6044C10.9089 18.5187 10.957 18.4025 10.957 18.2812V16.4531C10.957 16.3319 10.9089 16.2157 10.8232 16.13C10.7375 16.0442 10.6212 15.9961 10.5 15.9961ZM19.0312 9.29297H17.2031C17.0819 9.29297 16.9657 9.34112 16.88 9.42683C16.7942 9.51254 16.7461 9.62879 16.7461 9.75C16.7461 9.87121 16.7942 9.98746 16.88 10.0732C16.9657 10.1589 17.0819 10.207 17.2031 10.207H19.0312C19.1525 10.207 19.2687 10.1589 19.3544 10.0732C19.4401 9.98746 19.4883 9.87121 19.4883 9.75C19.4883 9.62879 19.4401 9.51254 19.3544 9.42683C19.2687 9.34112 19.1525 9.29297 19.0312 9.29297Z" fill="#828282" stroke="#828282" stroke-width="0.75"/>
</g>
<defs>
<clipPath id="clip0_1502_4">
<rect width="19.5" height="19.5" fill="white" transform="translate(0.75)"/>
</clipPath>
</defs>
</svg>
