<svg width="28" height="28" viewBox="0 0 28 28" fill="none" xmlns="http://www.w3.org/2000/svg">
<path fill-rule="evenodd" clip-rule="evenodd" d="M20.9591 21.8199V21.8178L20.9772 21.7734L24 6.16177V6.11221C24 5.72295 23.8589 5.38325 23.5545 5.17984C23.2874 5.00122 22.98 4.98883 22.7643 5.00535C22.5635 5.02395 22.3654 5.06551 22.1736 5.12925C22.0919 5.15626 22.0112 5.18657 21.9317 5.22011L21.9186 5.22527L5.06613 11.9975L5.06109 11.9996C5.00985 12.0175 4.9597 12.0386 4.91091 12.0626C4.79105 12.1178 4.67606 12.1834 4.5672 12.2588C4.3505 12.4116 3.93826 12.7709 4.00781 13.3409C4.06526 13.8137 4.38275 14.1132 4.59744 14.2691C4.72416 14.3601 4.86041 14.4362 5.00364 14.4962L5.03589 14.5107L5.04597 14.5138L5.05302 14.5169L8.00221 15.5339C7.99213 15.7229 8.01028 15.9159 8.05966 16.107L9.53627 21.8467C9.61694 22.1596 9.79125 22.4387 10.0347 22.6449C10.2782 22.8511 10.5786 22.974 10.8937 22.9963C11.2089 23.0186 11.5229 22.9393 11.7918 22.7694C12.0606 22.5995 12.2708 22.3476 12.3927 22.0491L14.6989 19.5236L18.659 22.6335L18.7154 22.6583C19.0753 22.8193 19.4109 22.8699 19.7183 22.8276C20.0258 22.7842 20.2697 22.6521 20.4531 22.5024C20.6653 22.3261 20.8344 22.1016 20.947 21.8467L20.9551 21.8292L20.9581 21.823L20.9591 21.8199ZM9.52116 15.7125C9.5048 15.6489 9.50869 15.5815 9.53225 15.5202C9.55581 15.4589 9.59782 15.407 9.65219 15.3718L19.6518 8.86696C19.6518 8.86696 20.2404 8.50042 20.2193 8.86696C20.2193 8.86696 20.3241 8.93097 20.0086 9.23144C19.7103 9.51744 12.8816 16.2711 12.1901 16.9547C12.1517 16.9929 12.1248 17.0416 12.1125 17.0951L10.9978 21.4523L9.52116 15.7115V15.7125Z" fill="#828282"/>
</svg>
