<svg width="32" height="26" viewBox="0 0 32 26" fill="none" xmlns="http://www.w3.org/2000/svg">
<g id="ion:logo-vk">
<path id="Vector" fill-rule="evenodd" clip-rule="evenodd" d="M27.435 6.11111C27.613 5.48444 27.435 5.02889 26.6475 5.02889H24.029C23.3685 5.02889 23.0635 5.42778 22.8855 5.85444C22.8855 5.85444 21.5385 9.49889 19.6575 11.8617C19.0475 12.545 18.768 12.7728 18.4375 12.7728C18.2595 12.7728 18.0305 12.545 18.0305 11.9189V6.08167C18.0305 5.34167 17.8275 5 17.268 5H13.15C12.743 5 12.489 5.34167 12.489 5.68333C12.489 6.395 13.4295 6.56611 13.531 8.55889V12.8889C13.531 13.8283 13.381 14 13.048 14C12.1585 14 9.99801 10.3272 8.70201 6.14222C8.45001 5.31333 8.19401 5 7.533 5H4.8895C4.127 5 4 5.39833 4 5.82556C4 6.59444 4.8895 10.4661 8.14301 15.5906C10.3035 19.0906 13.379 20.9717 16.1495 20.9717C17.8275 20.9717 18.0305 20.5444 18.0305 19.8328V17.185C18.0305 16.3311 18.183 16.1889 18.717 16.1889C19.098 16.1889 19.7845 16.4161 21.335 18.0961C23.114 20.0889 23.419 21 24.4105 21H27.0285C27.791 21 28.147 20.5728 27.9435 19.7472C27.715 18.9217 26.8505 17.7261 25.732 16.3028C25.122 15.5061 24.207 14.6233 23.9275 14.1961C23.5465 13.6267 23.648 13.3989 23.9275 12.8867C23.902 12.8867 27.105 7.81889 27.435 6.10889" fill="#828282"/>
</g>
</svg>
