<svg width="34" height="34" viewBox="0 0 34 34" fill="none" xmlns="http://www.w3.org/2000/svg">
<path d="M27.5359 11.498C27.4107 11.0147 27.1655 10.5741 26.825 10.2203C26.4844 9.86641 26.0603 9.6117 25.5953 9.48163C23.8825 9 17 9 17 9C17 9 10.1175 9 8.40475 9.48163C7.93966 9.6117 7.51561 9.86641 7.17504 10.2203C6.83447 10.5741 6.58932 11.0147 6.46414 11.498C6.14433 13.3129 5.98913 15.155 6.00059 17C5.98913 18.845 6.14433 20.6871 6.46414 22.502C6.58932 22.9853 6.83447 23.4259 7.17504 23.7797C7.51561 24.1336 7.93966 24.3883 8.40475 24.5184C10.1175 25 17 25 17 25C17 25 23.8825 25 25.5953 24.5184C26.0603 24.3883 26.4844 24.1336 26.825 23.7797C27.1655 23.4259 27.4107 22.9853 27.5359 22.502C27.8557 20.6871 28.0109 18.845 27.9994 17C28.0109 15.155 27.8557 13.3129 27.5359 11.498ZM14.8001 20.4286V13.5714L20.512 17L14.8001 20.4286Z" fill="#828282"/>
</svg>
